<?xml version="1.0" encoding="UTF-8" standalone="no"?>
<!-- Created with Inkscape (http://www.inkscape.org/) -->
<svg
   xmlns:dc="http://purl.org/dc/elements/1.1/"
   xmlns:cc="http://web.resource.org/cc/"
   xmlns:rdf="http://www.w3.org/1999/02/22-rdf-syntax-ns#"
   xmlns:svg="http://www.w3.org/2000/svg"
   xmlns="http://www.w3.org/2000/svg"
   xmlns:sodipodi="http://inkscape.sourceforge.net/DTD/sodipodi-0.dtd"
   xmlns:inkscape="http://www.inkscape.org/namespaces/inkscape"
   width="600"
   height="600"
   id="svg2"
   sodipodi:version="0.32"
   inkscape:version="0.43"
   version="1.0"
   sodipodi:docbase="C:\Documents and Settings\Alexander Bito\My Documents\Wikipedia Highways\Elongated circle shields"
   sodipodi:docname="Elongated circle 3.svg">
  <defs
     id="defs4" />
  <sodipodi:namedview
     id="base"
     pagecolor="#ffffff"
     bordercolor="#666666"
     borderopacity="1.0"
     inkscape:pageopacity="0.0"
     inkscape:pageshadow="2"
     inkscape:zoom="0.5"
     inkscape:cx="300"
     inkscape:cy="300"
     inkscape:document-units="px"
     inkscape:current-layer="layer1"
     inkscape:window-width="756"
     inkscape:window-height="540"
     inkscape:window-x="486"
     inkscape:window-y="10" />
  <metadata
     id="metadata7">
    <rdf:RDF>
      <cc:Work
         rdf:about="">
        <dc:format>image/svg+xml</dc:format>
        <dc:type
           rdf:resource="http://purl.org/dc/dcmitype/StillImage" />
      </cc:Work>
    </rdf:RDF>
  </metadata>
  <g
     inkscape:label="Layer 1"
     inkscape:groupmode="layer"
     id="layer1">
    <path
       style=""
       d="M 0,50 C 0,22.38574 22.3853,0 50,0 L 550,0 C 577.6143,0 600,22.38574 600,50 L 600,550 C 600,577.6152 577.6143,600 550,600 L 50,600 C 22.3853,600 0,577.6152 0,550 L 0,50 L 0,50 z "
       id="path5" />
    <path
       style=""
       d=""
       id="path7" />
    <path
       style="fill:#ffffff"
       d="M 587.49999,299.99998 C 587.49999,458.69998 458.69999,587.50001 299.99999,587.50001 C 141.29999,587.50001 12.499987,458.69998 12.499987,299.99998 C 12.499987,141.29998 141.29999,12.499981 299.99999,12.499981 C 458.69999,12.499981 587.49999,141.29998 587.49999,299.99998 z "
       id="circle11" />
    <path
       style="fill:#ffffff"
       d=""
       id="path1446" />
    <path
       style="font-size:450px;font-style:normal;font-variant:normal;font-weight:normal;font-stretch:normal;text-align:center;line-height:100%;writing-mode:lr-tb;text-anchor:middle;font-family:Roadgeek 2005 Series C"
       d="M 384.48762,369.3 C 384.48744,381.60007 382.38744,393.15006 378.18762,403.95 C 373.98745,414.45004 368.13745,423.60003 360.63762,431.4 C 353.43747,439.20001 344.58748,445.35001 334.08762,449.85 C 323.8875,454.05 312.78751,456.14999 300.78762,456.15 C 288.48753,456.14999 277.23754,454.05 267.03762,449.85 C 257.13756,445.65001 248.43757,439.80001 240.93762,432.3 C 233.73759,424.80003 227.88759,415.95003 223.38762,405.75 C 219.1876,395.25006 216.7876,383.85007 216.18762,371.55 L 258.48762,371.55 C 259.68756,383.85007 264.03756,394.05006 271.53762,402.15 C 279.33754,409.95004 289.08753,413.85004 300.78762,413.85 C 313.08751,413.85004 323.1375,409.65004 330.93762,401.25 C 339.03748,392.55006 343.08748,381.90007 343.08762,369.3 C 343.08748,361.20009 342.03748,353.7001 339.93762,346.8 C 337.83748,339.60011 334.98749,333.45012 331.38762,328.35 C 327.78749,322.95013 323.5875,318.75013 318.78762,315.75 C 314.28751,312.75014 309.33751,311.25014 303.93762,311.25 L 282.78762,311.25 L 282.78762,269.85 L 300.78762,269.85 C 306.18751,269.85018 310.23751,268.95018 312.93762,267.15 C 315.9375,265.35019 319.2375,262.35019 322.83762,258.15 C 331.53749,248.5502 335.88748,237.30021 335.88762,224.4 C 335.88748,212.70024 332.58749,203.40025 325.98762,196.5 C 319.6875,189.60026 311.28751,186.15026 300.78762,186.15 C 291.18753,186.15026 283.53754,189.00026 277.83762,194.7 C 272.43755,200.10025 269.13755,207.90024 267.93762,218.1 L 225.63762,212.7 C 226.83759,202.80025 229.53759,193.65026 233.73762,185.25 C 237.93758,176.55027 243.33758,169.20028 249.93762,163.2 C 256.53756,157.20029 264.18756,152.5503 272.88762,149.25 C 281.58754,145.65031 290.88753,143.85031 300.78762,143.85 C 311.58751,143.85031 321.6375,145.8003 330.93762,149.7 C 340.23748,153.6003 348.18747,159.15029 354.78762,166.35 C 361.68746,173.25028 367.08745,181.50027 370.98762,191.1 C 374.88745,200.40025 376.83744,210.45024 376.83762,221.25 C 376.83744,233.85022 374.73745,245.55021 370.53762,256.35 C 366.63745,267.15018 359.58746,278.40017 349.38762,290.1 C 361.08746,300.60015 369.78745,312.60014 375.48762,326.1 C 381.48744,339.60011 384.48744,354.0001 384.48762,369.3"
       id="text1327" />
    <path
       style="fill:none;stroke:#000000;stroke-width:0.99826401;stroke-miterlimit:4;stroke-opacity:1"
       d="M 587.00096,299.99995 C 587.00096,458.42445 458.42452,587.00086 300.00002,587.00086 C 141.57555,587.00086 12.999144,458.42445 12.999144,299.99995 C 12.999144,141.57545 141.57555,12.999044 300.00002,12.999044 C 458.42452,12.999044 587.00096,141.57545 587.00096,299.99995 z "
       id="circle1313" />
    <path
       style="fill:none;stroke:#000000;stroke-width:0.99826401;stroke-miterlimit:4;stroke-opacity:1"
       d=""
       id="path1315" />
  </g>
</svg>
